<svg xmlns="http://www.w3.org/2000/svg" viewBox="0 0 2000 1518.64"><defs><style>.cls-1{fill:#fff;}</style></defs><title>Asset 3</title><g id="Layer_2" data-name="Layer 2"><g id="Layer_1-2" data-name="Layer 1"><path class="cls-1" d="M1465.67,705.21A124.7,124.7,0,0,1,1341,580.51h0a28.5,28.5,0,0,1,28.5-28.5h362.17l57.88-92.64H1612.44a124.69,124.69,0,0,1-124.69-124.69h0a28.5,28.5,0,0,1,28.5-28.5h369l107.11-171.41a50.27,50.27,0,0,0-16-69.27h0c-201.72-126-467.44-64.7-593.5,137L790.39,1150.68c-70.38,112.64-36.13,261,76.51,331.38h0c112.63,70.39,261,36.13,331.38-76.5l437.63-700.35Z"/><path class="cls-1" d="M859.9,569h0a240.49,240.49,0,0,1,240.49,240.49v708.13a39.48,39.48,0,0,1-39.48,39.48h-11.79a429.7,429.7,0,0,1-429.7-429.7V809.53A240.49,240.49,0,0,1,859.9,569Z" transform="translate(2152.49 1508.96) rotate(148)"/><path class="cls-1" d="M184.21-65.88h0A452.35,452.35,0,0,1,636.56,386.47v287a33.42,33.42,0,0,1-33.42,33.42H519.34A363.76,363.76,0,0,1,155.58,343.13V-37.25a28.62,28.62,0,0,1,28.62-28.62Z" transform="translate(901.8 382.43) rotate(148)"/><circle class="cls-1" cx="994.3" cy="1278.15" r="240.49"/></g></g></svg>